HIERARCHY
ROOT Hips
{
  OFFSET 0.849866 78.6569 -0.536788
  CHANNELS 6 Xposition Yposition Zposition Zrotation Xrotation Yrotation
  JOINT Bip01_Pelvis
  {
    OFFSET 0 0 0
    CHANNELS 6 Xposition Yposition Zposition Zrotation Xrotation Yrotation
    JOINT BN_Tail_01
    {
      OFFSET -5.52397 -0.332285 0
      CHANNELS 6 Xposition Yposition Zposition Zrotation Xrotation Yrotation
      JOINT BN_Tail_02
      {
        OFFSET 6.48885 -2.032e-005 0
        CHANNELS 6 Xposition Yposition Zposition Zrotation Xrotation Yrotation
        JOINT BN_Tail_03
        {
          OFFSET 7.08759 1.016e-005 -0.00261112
          CHANNELS 6 Xposition Yposition Zposition Zrotation Xrotation Yrotation
          End Site
          {
            OFFSET 0 0 0
          }
        }
      }
    }
    JOINT Bip01_Spine
    {
      OFFSET 4.02227 0.398968 0
      CHANNELS 6 Xposition Yposition Zposition Zrotation Xrotation Yrotation
      JOINT BN_UpperArm_R_01
      {
        OFFSET 4.84413 -3.22857 -3.65581
        CHANNELS 6 Xposition Yposition Zposition Zrotation Xrotation Yrotation
        JOINT BN_Forearm_R_01
        {
          OFFSET 8.51614 0 0
          CHANNELS 6 Xposition Yposition Zposition Zrotation Xrotation Yrotation
          JOINT BN_hand_R_01
          {
            OFFSET 10.1924 0 0
            CHANNELS 6 Xposition Yposition Zposition Zrotation Xrotation Yrotation
            JOINT BN_Finger_R_02
            {
              OFFSET 14.5949 -1.43855 0.585079
              CHANNELS 6 Xposition Yposition Zposition Zrotation Xrotation Yrotation
              End Site
              {
                OFFSET 0 0 0
              }
            }
            JOINT BN_Finger_R_01
            {
              OFFSET 14.4623 0 0
              CHANNELS 6 Xposition Yposition Zposition Zrotation Xrotation Yrotation
              End Site
              {
                OFFSET 0 0 0
              }
            }
          }
        }
      }
      JOINT BN_UpperArm_L_01
      {
        OFFSET 4.84412 -3.22858 3.65557
        CHANNELS 6 Xposition Yposition Zposition Zrotation Xrotation Yrotation
        JOINT BN_Forearm_L_01
        {
          OFFSET 8.51611 0 0
          CHANNELS 6 Xposition Yposition Zposition Zrotation Xrotation Yrotation
          JOINT BN_hand_L_01
          {
            OFFSET 10.1924 0 0
            CHANNELS 6 Xposition Yposition Zposition Zrotation Xrotation Yrotation
            JOINT BN_Finger_L_01
            {
              OFFSET 14.4623 0 0
              CHANNELS 6 Xposition Yposition Zposition Zrotation Xrotation Yrotation
              End Site
              {
                OFFSET 0 0 0
              }
            }
            JOINT BN_Finger_L_02
            {
              OFFSET 14.5949 1.43855 0.585071
              CHANNELS 6 Xposition Yposition Zposition Zrotation Xrotation Yrotation
              End Site
              {
                OFFSET 0 0 0
              }
            }
          }
        }
      }
      JOINT Bip01_R_Thigh
      {
        OFFSET -4.03411 -0.254132 -3.45377
        CHANNELS 6 Xposition Yposition Zposition Zrotation Xrotation Yrotation
        JOINT Bip01_R_Calf
        {
          OFFSET 3.92618 0 0
          CHANNELS 6 Xposition Yposition Zposition Zrotation Xrotation Yrotation
          JOINT Bip01_R_HorseLink
          {
            OFFSET 6.12319 0 0
            CHANNELS 6 Xposition Yposition Zposition Zrotation Xrotation Yrotation
            JOINT Bip01_R_Foot
            {
              OFFSET 9.94776 0 0
              CHANNELS 6 Xposition Yposition Zposition Zrotation Xrotation Yrotation
              JOINT Bip01_R_Toe3
              {
                OFFSET 0.881252 -0.110953 0.0158496
                CHANNELS 6 Xposition Yposition Zposition Zrotation Xrotation Yrotation
                JOINT Bip01_R_Toe31
                {
                  OFFSET 2.32137 0 0
                  CHANNELS 6 Xposition Yposition Zposition Zrotation Xrotation Yrotation
                  JOINT Bip01_R_Toe32
                  {
                    OFFSET 1.63293 0 0
                    CHANNELS 6 Xposition Yposition Zposition Zrotation Xrotation Yrotation
                    JOINT Bip01_R_Toe3Nub
                    {
                      OFFSET 1.72131 0 0
                      CHANNELS 6 Xposition Yposition Zposition Zrotation Xrotation Yrotation
                      End Site
                      {
                        OFFSET 0 0 0
                      }
                    }
                  }
                }
              }
              JOINT Bip01_R_Toe2
              {
                OFFSET 0.994751 0.967285 -1.09428
                CHANNELS 6 Xposition Yposition Zposition Zrotation Xrotation Yrotation
                JOINT Bip01_R_Toe21
                {
                  OFFSET 2.20201 0 0
                  CHANNELS 6 Xposition Yposition Zposition Zrotation Xrotation Yrotation
                  JOINT Bip01_R_Toe22
                  {
                    OFFSET 1.84925 0 0
                    CHANNELS 6 Xposition Yposition Zposition Zrotation Xrotation Yrotation
                    JOINT Bip01_R_Toe2Nub
                    {
                      OFFSET 1.70976 0 0
                      CHANNELS 6 Xposition Yposition Zposition Zrotation Xrotation Yrotation
                      End Site
                      {
                        OFFSET 0 0 0
                      }
                    }
                  }
                }
              }
              JOINT Bip01_R_Toe1
              {
                OFFSET 1.3748 1.34027 -0.0712419
                CHANNELS 6 Xposition Yposition Zposition Zrotation Xrotation Yrotation
                JOINT Bip01_R_Toe11
                {
                  OFFSET 2.26122 0 0
                  CHANNELS 6 Xposition Yposition Zposition Zrotation Xrotation Yrotation
                  JOINT Bip01_R_Toe12
                  {
                    OFFSET 2.22215 0 0
                    CHANNELS 6 Xposition Yposition Zposition Zrotation Xrotation Yrotation
                    JOINT Bip01_R_Toe1Nub
                    {
                      OFFSET 1.61867 0 0
                      CHANNELS 6 Xposition Yposition Zposition Zrotation Xrotation Yrotation
                      End Site
                      {
                        OFFSET 0 0 0
                      }
                    }
                  }
                }
              }
              JOINT Bip01_R_Toe0
              {
                OFFSET 1.40695 0.687986 0.883783
                CHANNELS 6 Xposition Yposition Zposition Zrotation Xrotation Yrotation
                JOINT Bip01_R_Toe01
                {
                  OFFSET 2.26828 0 0
                  CHANNELS 6 Xposition Yposition Zposition Zrotation Xrotation Yrotation
                  JOINT Bip01_R_Toe02
                  {
                    OFFSET 2.09769 0 0
                    CHANNELS 6 Xposition Yposition Zposition Zrotation Xrotation Yrotation
                    JOINT Bip01_R_Toe0Nub
                    {
                      OFFSET 1.53753 0 0
                      CHANNELS 6 Xposition Yposition Zposition Zrotation Xrotation Yrotation
                      End Site
                      {
                        OFFSET 0 0 0
                      }
                    }
                  }
                }
              }
            }
          }
        }
      }
      JOINT Bip01_L_Thigh
      {
        OFFSET -4.03411 -0.254147 3.45377
        CHANNELS 6 Xposition Yposition Zposition Zrotation Xrotation Yrotation
        JOINT Bip01_L_Calf
        {
          OFFSET 3.92616 0 0
          CHANNELS 6 Xposition Yposition Zposition Zrotation Xrotation Yrotation
          JOINT Bip01_L_HorseLink
          {
            OFFSET 6.1232 0 0
            CHANNELS 6 Xposition Yposition Zposition Zrotation Xrotation Yrotation
            JOINT Bip01_L_Foot
            {
              OFFSET 9.94775 0 0
              CHANNELS 6 Xposition Yposition Zposition Zrotation Xrotation Yrotation
              JOINT Bip01_L_Toe3
              {
                OFFSET 0.881246 -0.110986 -0.0157582
                CHANNELS 6 Xposition Yposition Zposition Zrotation Xrotation Yrotation
                JOINT Bip01_L_Toe31
                {
                  OFFSET 2.32136 0 0
                  CHANNELS 6 Xposition Yposition Zposition Zrotation Xrotation Yrotation
                  JOINT Bip01_L_Toe32
                  {
                    OFFSET 1.63293 0 0
                    CHANNELS 6 Xposition Yposition Zposition Zrotation Xrotation Yrotation
                    JOINT Bip01_L_Toe3Nub
                    {
                      OFFSET 1.7213 0 0
                      CHANNELS 6 Xposition Yposition Zposition Zrotation Xrotation Yrotation
                      End Site
                      {
                        OFFSET 0 0 0
                      }
                    }
                  }
                }
              }
              JOINT Bip01_L_Toe2
              {
                OFFSET 0.994649 0.967162 1.09447
                CHANNELS 6 Xposition Yposition Zposition Zrotation Xrotation Yrotation
                JOINT Bip01_L_Toe21
                {
                  OFFSET 2.202 0 0
                  CHANNELS 6 Xposition Yposition Zposition Zrotation Xrotation Yrotation
                  JOINT Bip01_L_Toe22
                  {
                    OFFSET 1.84926 0 0
                    CHANNELS 6 Xposition Yposition Zposition Zrotation Xrotation Yrotation
                    JOINT Bip01_L_Toe2Nub
                    {
                      OFFSET 1.70976 0 0
                      CHANNELS 6 Xposition Yposition Zposition Zrotation Xrotation Yrotation
                      End Site
                      {
                        OFFSET 0 0 0
                      }
                    }
                  }
                }
              }
              JOINT Bip01_L_Toe1
              {
                OFFSET 1.37483 1.34021 0.0715086
                CHANNELS 6 Xposition Yposition Zposition Zrotation Xrotation Yrotation
                JOINT Bip01_L_Toe11
                {
                  OFFSET 2.26124 0 0
                  CHANNELS 6 Xposition Yposition Zposition Zrotation Xrotation Yrotation
                  JOINT Bip01_L_Toe12
                  {
                    OFFSET 2.22214 0 0
                    CHANNELS 6 Xposition Yposition Zposition Zrotation Xrotation Yrotation
                    JOINT Bip01_L_Toe1Nub
                    {
                      OFFSET 1.61867 0 0
                      CHANNELS 6 Xposition Yposition Zposition Zrotation Xrotation Yrotation
                      End Site
                      {
                        OFFSET 0 0 0
                      }
                    }
                  }
                }
              }
              JOINT Bip01_L_Toe0
              {
                OFFSET 1.40707 0.688009 -0.883564
                CHANNELS 6 Xposition Yposition Zposition Zrotation Xrotation Yrotation
                JOINT Bip01_L_Toe01
                {
                  OFFSET 2.26828 0 0
                  CHANNELS 6 Xposition Yposition Zposition Zrotation Xrotation Yrotation
                  JOINT Bip01_L_Toe02
                  {
                    OFFSET 2.0977 0 0
                    CHANNELS 6 Xposition Yposition Zposition Zrotation Xrotation Yrotation
                    JOINT Bip01_L_Toe0Nub
                    {
                      OFFSET 1.53752 0 0
                      CHANNELS 6 Xposition Yposition Zposition Zrotation Xrotation Yrotation
                      End Site
                      {
                        OFFSET 0 0 0
                      }
                    }
                  }
                }
              }
            }
          }
        }
      }
      JOINT Bip01_Spine1
      {
        OFFSET 4.90674 -0.00437896 0
        CHANNELS 6 Xposition Yposition Zposition Zrotation Xrotation Yrotation
        JOINT Bip01_Neck
        {
          OFFSET 5.56447 -1.28357 0
          CHANNELS 6 Xposition Yposition Zposition Zrotation Xrotation Yrotation
          JOINT Bip01_Neck1
          {
            OFFSET 2.79308 -0.00219964 0
            CHANNELS 6 Xposition Yposition Zposition Zrotation Xrotation Yrotation
            JOINT Bip01_Head
            {
              OFFSET 2.79272 0 0
              CHANNELS 6 Xposition Yposition Zposition Zrotation Xrotation Yrotation
              JOINT BN_Mouth_01
              {
                OFFSET 4.19089 0.0665938 0
                CHANNELS 6 Xposition Yposition Zposition Zrotation Xrotation Yrotation
                End Site
                {
                  OFFSET 0 0 0
                }
              }
              JOINT Bip01_HeadNub
              {
                OFFSET 6.95118 0 0
                CHANNELS 6 Xposition Yposition Zposition Zrotation Xrotation Yrotation
                End Site
                {
                  OFFSET 0 0 0
                }
              }
            }
          }
        }
      }
    }
  }
}
MOTION
Frames:	3
Frame Time:	0.0333333
0.849866 91.44 0 16.4692 -89.9999 101.717 0 0 0 -89.9999 6.18277 -90 -5.52396 -0.332291 -7.62e-006 -35.3922 -0.0115814 -179.964 6.48884 -1.52588e-005 -1.86265e-009 13.1462 5.82225e-006 -1.91291e-005 7.08757 -7.10543e-015 -1.86265e-009 21.1012 1.29541e-005 5.74013e-006 4.02121 0.398911 -4.064e-005 -4.85285 0.59934 3.40587 4.84412 -3.22853 -3.65581 -81.6781 -8.74389 35.7477 8.5161 0.000263215 -3.8147e-006 36.3255 5.6528e-006 -20.2382 10.1924 0 -3.8147e-006 -30.9124 0.673612 -22.3453 14.5949 -1.43856 0.585081 -48.2998 -1.49204 21.2401 14.4623 -1.90735e-006 5.72204e-006 -2.99767 -8.12152e-007 19.8665 4.84413 -3.22856 3.65557 98.3219 -8.74392 -144.253 8.5161 -0.000270844 -3.8147e-006 -33.8765 6.61101 -20.3797 10.1924 7.62941e-006 -3.8147e-006 30.9124 -0.673607 -22.3453 14.4623 -1.14441e-005 -3.8147e-006 2.99765 -7.02785e-006 19.8666 14.5949 1.43854 0.585073 48.2997 1.49202 21.2401 -3.76132 -0.773751 -3.67577 -91.1823 -2.57642 173.566 3.92618 -1.90735e-006 0 -75.4789 -7.10044e-006 -1.62019e-005 6.1232 0 9.53675e-007 99.2216 1.55661e-006 -1.02524e-005 9.94775 -7.10547e-015 0 -51.9036 4.71082 6.05352 0.881242 -0.110964 0.0158138 153.242 -4.52544 179.851 2.32137 -7.62947e-006 -8.88179e-016 81.3832 9.15351e-006 4.08756e-006 1.63293 1.5259e-005 0 -87.5442 -9.75999e-006 1.10255e-005 1.72129 3.81479e-006 4.76837e-007 -5.62655e-007 1.09088e-005 -4.66606e-007 0.994697 0.967275 -1.09432 109.973 14.8781 36.1765 2.20199 -7.6295e-006 4.76837e-007 55.6001 6.45155e-006 7.71112e-006 1.84924 3.55278e-015 2.86102e-006 -35.3054 -1.78263e-005 -1.63872e-006 1.70975 -7.62956e-006 -4.76837e-007 -2.17381e-007 1.87771e-006 2.58407e-007 1.37481 1.34026 -0.0713027 122.954 -1.46623 -2.26037 2.26123 1.4211e-014 -2.38419e-007 31.1837 -9.57374e-006 1.67839e-005 2.22213 0 2.38419e-007 -38.5093 -5.43517e-006 9.80976e-006 1.61866 -1.42111e-014 4.44089e-016 1.53104e-008 -1.61571e-007 3.25816e-007 1.40696 0.687974 0.883719 106.744 -17.2202 -40.8971 2.26828 -7.6295e-006 -9.53673e-007 26.1303 -1.17867e-005 1.57019e-005 2.09771 -7.62951e-006 9.53673e-007 -61.0258 2.40009e-005 5.5226e-006 1.53752 1.42112e-014 3.55271e-015 2.08521e-007 8.53778e-007 -2.6346e-007 -4.17168 -0.70147 3.21918 -97.4545 7.91328 -174.151 3.92618 -7.62941e-006 0 -76.5776 -5.81574e-006 1.1734e-005 6.12319 0 0 132.922 5.32197e-007 -1.43464e-005 9.94775 1.52589e-005 0 -17.9073 -7.51453 3.63991 0.881235 -0.110947 -0.0158142 109.143 3.14947 -176.745 2.32138 1.90737e-006 -4.76837e-007 44.4439 -7.01096e-006 -1.89161e-005 1.63292 7.6295e-006 -3.33786e-006 -43.5294 -4.56104e-007 4.36791e-006 1.7213 4.76846e-007 0 -179.96 -2.79809e-006 -2.6476e-007 0.994708 0.96729 1.09432 84.9642 4.52313 -38.5029 2.202 -3.81474e-006 -3.81469e-006 63.0468 1.0593e-005 -1.7889e-007 1.84926 0 3.81469e-006 -35.3055 -5.94465e-006 -1.14635e-007 1.70977 -4.76846e-007 7.10542e-015 179.96 -7.77753e-006 -1.04397e-005 1.3748 1.34026 0.0713027 88.4895 -0.0710618 2.69313 2.26123 3.81474e-006 -2.6226e-006 49.2929 -1.55264e-005 -7.45001e-006 2.22212 3.81475e-006 -2.38419e-007 -38.5093 -2.0227e-005 -3.14432e-006 1.61866 0 8.88178e-016 179.96 -9.68657e-006 1.74206e-005 1.40699 0.687977 -0.883722 90.4318 2.44904 43.7253 2.26829 1.90737e-006 1.52588e-005 49.9367 5.98328e-006 7.70773e-006 2.09769 -1.90738e-006 -3.81469e-006 -61.0258 -5.31697e-006 1.33983e-005 1.53752 0 -3.81469e-006 179.96 -9.28101e-006 1.77402e-005 4.90711 -0.00430298 -0.000375748 9.04827 4.95586 -2.08594 5.56426 -1.28359 0.000253677 -1.92336 -6.5776 8.33944 2.79365 -0.00201416 0.000149488 24.6195 -3.86834 -9.68594 2.79273 -1.42109e-014 0 28.0907 -1.35008 0.45455 4.19087 0.0665818 7.86781e-006 -115.595 -0.0346832 -179.978 6.95116 -7.6294e-006 0 1.17479e-007 7.28266e-008 -6.16577e-009 
1.19811 90.7378 -0.00863252 173.24 -89.6448 -103.906 0 0 0 -89.1095 7.98542 -89.5301 -5.52396 -0.332291 -7.62e-006 -33.8543 -0.0152283 -179.957 6.48884 -1.52588e-005 -1.86265e-009 11.6083 6.36738e-006 -1.8966e-005 7.08757 0 -1.86265e-009 19.5633 1.28374e-005 6.09698e-006 4.00628 0.52521 0.0334116 -6.37119 -0.33995 3.31829 4.84412 -3.22853 -3.65581 -81.8976 -8.96241 36.168 8.5161 0.000263215 -3.8147e-006 36.0932 -0.604706 -20.9789 10.1924 -3.55272e-015 -3.8147e-006 -29.1229 4.84789 -22.6437 14.5949 -1.43856 0.585081 -48.4124 -1.10886 18.649 14.4623 -1.90735e-006 5.72204e-006 -3.14435 0.481099 17.0749 4.84413 -3.22856 3.65557 98.1282 -9.89093 -143.924 8.5161 -0.000270844 -3.8147e-006 -33.7929 6.57442 -21.1231 10.1924 7.62941e-006 -3.8147e-006 30.1376 -2.56358 -22.3925 14.4749 0.137156 0.0557848 2.37948 0.477955 17.279 14.5823 1.30138 0.529287 46.2514 0.428865 18.5909 -3.71437 -0.94579 -3.71416 -90.5534 -1.52895 172.249 3.92618 -1.90735e-006 1.77636e-015 -73.4246 1.14415e-005 -2.16162e-005 6.1232 1.42109e-014 9.53675e-007 94.7345 8.91184e-006 -1.06185e-005 9.94775 0 0 -44.2475 6.74118 0.900659 0.881242 -0.110964 0.0158138 157.82 -4.52239 -179.788 2.32137 -7.62946e-006 3.55271e-015 81.3832 9.17016e-006 4.00423e-006 1.63293 1.5259e-005 3.55271e-015 -87.5442 -9.8178e-006 1.10215e-005 1.72129 3.81479e-006 4.76837e-007 -5.62655e-007 1.09088e-005 -4.66606e-007 0.994698 0.967275 -1.09432 106.206 12.1517 37.0484 2.20199 -7.6295e-006 4.76837e-007 55.6001 7.36901e-006 7.5626e-006 1.84924 6.395e-014 2.86102e-006 -35.3054 -1.80362e-005 -2.11018e-006 1.70975 -7.62956e-006 -4.76837e-007 -2.17381e-007 1.87771e-006 2.58407e-007 1.37481 1.34026 -0.0713027 118.392 -1.28179 -2.3698 2.26123 7.10552e-015 -2.38419e-007 31.1837 -9.76838e-006 1.70124e-005 2.22213 -3.55277e-015 2.38419e-007 -38.5093 -5.13509e-006 9.96762e-006 1.61866 2.84222e-014 -5.32907e-015 1.53104e-008 -1.61571e-007 3.25816e-007 1.40696 0.687974 0.883719 103.187 -14.198 -41.85 2.26828 -7.6295e-006 -9.53673e-007 26.1303 -1.23258e-005 1.58679e-005 2.09771 -7.62951e-006 9.53673e-007 -61.0258 2.51844e-005 5.6983e-006 1.53753 -1.42112e-014 1.77635e-015 2.08521e-007 8.53778e-007 -2.6346e-007 -4.11417 -0.986757 3.18164 -97.3981 8.14949 -173.71 3.92618 -7.62941e-006 -1.77636e-015 -77.4066 1.91773e-005 6.02684e-006 6.12319 2.84218e-014 7.10543e-015 125.871 -4.4731e-006 -9.27931e-006 9.94775 1.52589e-005 0 -19.3114 -6.82603 8.15289 0.881235 -0.110947 -0.0158142 109.143 3.14949 -176.745 2.32137 1.90737e-006 -4.76837e-007 44.4439 -7.14617e-006 -1.90726e-005 1.63292 7.6295e-006 -3.33786e-006 -43.5294 -4.60084e-007 4.57089e-006 1.7213 4.76846e-007 3.55271e-015 -179.96 -2.79835e-006 -2.89111e-007 0.994708 0.967291 1.09432 84.9642 4.52312 -38.5028 2.202 -3.81474e-006 -3.81469e-006 63.0468 1.01188e-005 -1.72456e-007 1.84926 -2.3093e-013 3.81469e-006 -35.3055 -5.90618e-006 5.04858e-008 1.70977 -4.76846e-007 1.42108e-014 179.96 -7.77834e-006 -1.044e-005 1.3748 1.34026 0.0713027 88.4895 -0.0710626 2.69313 2.26123 3.81474e-006 -2.6226e-006 49.2929 -1.529e-005 -7.34733e-006 2.22211 3.81475e-006 -2.38419e-007 -38.5093 -2.02968e-005 -3.34654e-006 1.61866 1.06583e-014 3.55271e-015 179.96 -9.68636e-006 1.74207e-005 1.40699 0.687977 -0.883722 90.4318 2.44904 43.7253 2.26829 1.90737e-006 1.52588e-005 49.9367 6.40214e-006 7.29649e-006 2.09769 -1.90738e-006 -3.81469e-006 -61.0258 -6.28964e-006 1.33345e-005 1.53752 1.27901e-013 -3.81469e-006 179.96 -9.27981e-006 1.77395e-005 4.90711 -0.00430298 -0.000375748 11.909 4.84452 -2.32926 5.56426 -1.28359 0.000253677 -0.367424 -6.25062 8.52791 2.79365 -0.00201416 0.000149488 18.9561 -2.78219 -10.1222 2.79273 2.84217e-014 0 31.0979 -1.92083 0.557132 4.19087 0.0665818 7.86782e-006 -115.867 -0.041214 -179.974 6.95116 -7.6294e-006 0 1.17479e-007 7.28266e-008 -6.16577e-009 
1.78782 89.7954 0.00223773 -177.123 -89.3956 -96.4829 0 0 0 -88.0614 9.87925 -89.1235 -5.52396 -0.332291 -7.62e-006 -30.2189 0.0104218 -179.996 6.48884 -1.52588e-005 -1.86264e-009 7.97292 7.57556e-006 -1.85264e-005 7.08758 0 -1.86265e-009 15.9279 1.24807e-005 6.89888e-006 3.98615 0.657368 0.0621843 -8.19787 -1.4332 3.19401 4.84412 -3.22853 -3.65581 -82.3431 -9.42204 37.5299 8.51611 0.000263215 -3.8147e-006 35.4831 -2.0097 -22.7402 10.1924 -4.08563e-014 -3.8147e-006 -27.1746 9.38627 -22.9002 14.5949 -1.43856 0.585081 -48.5335 -0.15069 12.3127 14.4623 -1.90735e-006 5.72204e-006 -3.29879 1.66484 10.2709 4.84413 -3.22856 3.65557 97.7089 -12.5845 -142.814 8.5161 -0.000270844 -3.8147e-006 -33.5998 6.47788 -22.8797 10.1924 7.62941e-006 -3.8147e-006 28.2802 -7.02307 -22.6652 14.5048 0.461398 0.187656 1.07739 1.73413 11.0619 14.5524 0.977148 0.397418 41.0077 -2.19422 12.1335 -3.64811 -1.13072 -3.75447 -89.6992 -0.313632 170.818 3.92618 -1.90735e-006 -1.77636e-015 -71.1516 -1.52464e-005 -1.32264e-005 6.1232 1.42109e-014 9.53675e-007 89.6863 8.83445e-006 -9.76421e-006 9.94775 0 3.55271e-015 -35.443 8.25638 -5.12069 0.881242 -0.110964 0.0158138 169.602 -4.38487 -178.87 2.32137 -7.62945e-006 0 81.3832 9.83831e-006 3.88362e-006 1.63293 1.5259e-005 -6.39489e-014 -87.5442 -9.88938e-006 1.03722e-005 1.72129 3.81479e-006 4.76837e-007 -5.62655e-007 1.09088e-005 -4.66606e-007 0.994698 0.967274 -1.09432 96.8203 4.94551 38.4589 2.202 -7.6295e-006 4.76837e-007 55.6001 9.36159e-006 7.08109e-006 1.84924 2.27378e-013 2.86102e-006 -35.3054 -1.88088e-005 -3.07122e-006 1.70976 -7.62956e-006 -4.76837e-007 -2.17381e-007 1.87771e-006 2.58407e-007 1.37481 1.34026 -0.0713027 106.654 -0.772623 -2.58098 2.26123 -1.4211e-014 -2.38419e-007 31.1837 -1.01107e-005 1.70225e-005 2.22213 0 2.38419e-007 -38.5093 -4.74708e-006 1.01992e-005 1.61866 5.68444e-014 0 1.53104e-008 -1.61571e-007 3.25816e-007 1.40697 0.687973 0.883719 94.4135 -6.22866 -43.4238 2.26828 -7.6295e-006 -9.53673e-007 26.1303 -1.34798e-005 1.64801e-005 2.09771 -7.62951e-006 9.53673e-007 -61.0258 2.71274e-005 5.61605e-006 1.53753 0 -3.55271e-015 2.08521e-007 8.53778e-007 -2.6346e-007 -4.03284 -1.30348 3.14016 -97.1923 8.3923 -173.136 3.92618 -7.62941e-006 0 -78.2573 1.74713e-006 9.9137e-006 6.12319 2.13163e-014 4.44089e-015 118.19 4.16972e-006 -1.37371e-005 9.94775 1.52589e-005 -1.77636e-015 -20.908 -6.62069 13.2885 0.881234 -0.110947 -0.0158142 109.143 3.1494 -176.745 2.32137 1.90737e-006 -4.76837e-007 44.4439 -7.29508e-006 -1.93253e-005 1.63292 7.6295e-006 -3.33786e-006 -43.5294 -5.20918e-007 4.8509e-006 1.7213 4.76846e-007 8.88179e-016 -179.96 -2.7986e-006 -3.23045e-007 0.994708 0.967291 1.09432 84.9642 4.52314 -38.5028 2.202 -3.81474e-006 -3.81469e-006 63.0468 9.37683e-006 4.4678e-009 1.84926 -2.23825e-013 3.81469e-006 -35.3055 -5.93697e-006 8.66164e-007 1.70976 -4.76846e-007 0 179.96 -7.77951e-006 -1.04402e-005 1.3748 1.34026 0.0713027 88.4895 -0.0710622 2.69313 2.26123 3.81474e-006 -2.6226e-006 49.2929 -1.50276e-005 -7.1553e-006 2.22211 3.81476e-006 -2.38419e-007 -38.5093 -2.03176e-005 -3.61278e-006 1.61866 3.55278e-015 3.55271e-015 179.96 -9.68612e-006 1.7421e-005 1.40698 0.687977 -0.883722 90.4318 2.44905 43.7253 2.26829 1.90737e-006 1.52588e-005 49.9367 6.64942e-006 7.00937e-006 2.09769 -1.90738e-006 -3.81469e-006 -61.0258 -7.15032e-006 1.33294e-005 1.53752 2.4159e-013 -3.81469e-006 179.96 -9.27794e-006 1.77389e-005 4.90711 -0.00430298 -0.000375748 14.8225 4.71752 -2.57002 5.56426 -1.28359 0.000253677 1.21422 -5.85161 8.71864 2.79365 -0.00201416 0.000149488 12.5593 -1.45289 -10.5408 2.79273 1.42109e-014 1.11022e-016 34.6959 -2.61115 0.646486 4.19087 0.0665818 7.86781e-006 -116.622 -0.0373841 -179.977 6.95116 -7.6294e-006 8.88178e-016 1.17479e-007 7.28266e-008 -6.16577e-009 
